<svg width="43" height="43" viewBox="0 0 43 43" fill="none" xmlns="http://www.w3.org/2000/svg">
<rect width="43" height="43" rx="5" fill="#4B729F"/>
<path d="M29.7448 22.5705C29.3406 22.0601 29.4562 21.833 29.7448 21.3768C29.75 21.3716 33.0865 16.7611 33.4302 15.1976L33.4323 15.1965C33.6031 14.6268 33.4323 14.208 32.6062 14.208H29.8729C29.1771 14.208 28.8562 14.5674 28.6844 14.9695C28.6844 14.9695 27.2927 18.3007 25.324 20.4601C24.6885 21.084 24.3948 21.2841 24.0479 21.2841C23.8771 21.2841 23.6115 21.084 23.6115 20.5143V15.1965C23.6115 14.5132 23.4167 14.208 22.8406 14.208H18.5427C18.1062 14.208 17.8469 14.5268 17.8469 14.8236C17.8469 15.4715 18.8313 15.6205 18.9333 17.4434V21.3986C18.9333 22.2653 18.776 22.4247 18.4271 22.4247C17.4979 22.4247 15.2427 19.0799 13.9062 15.2518C13.6365 14.509 13.3729 14.209 12.6719 14.209H9.9375C9.15729 14.209 9 14.5684 9 14.9705C9 15.6809 9.92917 19.2132 13.3208 23.8799C15.5812 27.0653 18.7646 28.7913 21.6604 28.7913C23.401 28.7913 23.6135 28.408 23.6135 27.7486C23.6135 24.7049 23.4562 24.4174 24.3281 24.4174C24.7323 24.4174 25.4281 24.6174 27.0531 26.1538C28.9104 27.9757 29.2156 28.7913 30.2552 28.7913H32.9885C33.7677 28.7913 34.1625 28.408 33.9354 27.6518C33.4156 26.0611 29.9031 22.7893 29.7448 22.5705Z" fill="white"/>
</svg>
