<svg width="54" height="54" viewBox="0 0 54 54" fill="none" xmlns="http://www.w3.org/2000/svg">
<path d="M42.5566 5.07506V48.9246C42.5566 50.7186 41.1024 52.1728 39.3084 52.1728H8.97078C7.17686 52.1728 5.72266 50.7186 5.72266 48.9246V5.07506C5.72266 3.28114 7.17686 1.82693 8.97078 1.82693H39.3085C41.1024 1.82693 42.5566 3.28124 42.5566 5.07506Z" fill="white"/>
<path d="M25.652 48.0513C25.652 48.888 24.9777 49.5671 24.1409 49.5671C23.3041 49.5671 22.625 48.888 22.625 48.0513C22.625 47.2145 23.304 46.5355 24.1409 46.5355C24.9777 46.5355 25.652 47.2145 25.652 48.0513Z" fill="#F6F6F6"/>
<path d="M27.0324 13.2169C27.0324 14.813 25.7339 16.1047 24.1378 16.1047C22.5418 16.1047 21.25 14.813 21.25 13.2169C21.25 11.6209 22.5417 10.3223 24.1378 10.3223C25.7339 10.3223 27.0324 11.6208 27.0324 13.2169Z" fill="#495CEE"/>
<path d="M18.6602 24.9455C18.6602 21.1266 21.1086 18.0198 24.134 18.0198C27.1594 18.0198 29.6206 21.1266 29.6206 24.9455H18.6602Z" fill="#495CEE"/>
<path d="M48.2775 13.8661C48.2775 17.0329 45.7196 19.5908 42.5608 19.5908C39.3939 19.5908 36.8359 17.0329 36.8359 13.8661C36.8359 10.7073 39.3939 8.14936 42.5608 8.14936C45.7197 8.14936 48.2775 10.7073 48.2775 13.8661Z" fill="#34BBDA"/>
<path d="M30.0777 5.38134H30.958C31.2942 5.38134 31.5669 5.1086 31.5669 4.77237C31.5669 4.43613 31.2942 4.16339 30.958 4.16339H30.0777C29.7415 4.16339 29.4688 4.43613 29.4688 4.77237C29.4688 5.1086 29.7415 5.38134 30.0777 5.38134Z" fill="#2C2C2C"/>
<path d="M17.3199 5.38134H26.9608C27.297 5.38134 27.5698 5.1086 27.5698 4.77237C27.5698 4.43613 27.297 4.16339 26.9608 4.16339H17.3199C16.9837 4.16339 16.7109 4.43613 16.7109 4.77237C16.7109 5.1086 16.9837 5.38134 17.3199 5.38134Z" fill="#2C2C2C"/>
<path d="M24.1408 45.9265C22.9687 45.9265 22.0156 46.8797 22.0156 48.0509C22.0156 49.223 22.9689 50.1761 24.1408 50.1761C25.3097 50.1761 26.261 49.2229 26.261 48.0509C26.261 46.8797 25.3097 45.9265 24.1408 45.9265ZM24.1408 48.9581C23.6405 48.9581 23.2336 48.5513 23.2336 48.0508C23.2336 47.5512 23.6404 47.1444 24.1408 47.1444C24.638 47.1444 25.0429 47.5512 25.0429 48.0508C25.0429 48.5513 24.6381 48.9581 24.1408 48.9581Z" fill="#2C2C2C"/>
<path d="M24.1373 9.71347C22.2092 9.71347 20.6406 11.2852 20.6406 13.2169C20.6406 15.1455 22.2092 16.7141 24.1373 16.7141C26.0695 16.7141 27.6412 15.1455 27.6412 13.2169C27.6412 11.2852 26.0694 9.71347 24.1373 9.71347ZM24.1373 15.496C22.8808 15.496 21.8587 14.4738 21.8587 13.2169C21.8587 11.9569 22.8809 10.9315 24.1373 10.9315C25.3978 10.9315 26.4232 11.9569 26.4232 13.2169C26.4232 14.4738 25.3978 15.496 24.1373 15.496Z" fill="#2C2C2C"/>
<path d="M18.0508 24.9454C18.0508 25.2816 18.3235 25.5543 18.6598 25.5543H29.6202H29.6364C29.9727 25.5543 30.2454 25.2816 30.2454 24.9454C30.2454 24.8954 30.2395 24.8471 30.228 24.8002C30.1653 20.7124 27.4556 17.4111 24.1338 17.4111C20.7795 17.4111 18.0508 20.7908 18.0508 24.9454ZM28.9886 24.3363H19.2914C19.5278 21.1382 21.6093 18.6291 24.1339 18.6291C26.6647 18.6292 28.7515 21.1382 28.9886 24.3363Z" fill="#2C2C2C"/>
<path d="M12.8863 30.5717H35.3881C35.7243 30.5717 35.9971 30.299 35.9971 29.9627C35.9971 29.6265 35.7243 29.3537 35.3881 29.3537H12.8863C12.5501 29.3537 12.2773 29.6265 12.2773 29.9627C12.2773 30.2989 12.5501 30.5717 12.8863 30.5717Z" fill="#2C2C2C"/>
<path d="M12.8863 36.156H35.3881C35.7243 36.156 35.9971 35.8832 35.9971 35.547C35.9971 35.2107 35.7243 34.938 35.3881 34.938H12.8863C12.5501 34.938 12.2773 35.2107 12.2773 35.547C12.2773 35.8832 12.5501 36.156 12.8863 36.156Z" fill="#2C2C2C"/>
<path d="M29.7208 40.5232H18.5621C18.2259 40.5232 17.9531 40.796 17.9531 41.1322C17.9531 41.4685 18.2259 41.7412 18.5621 41.7412H29.7208C30.057 41.7412 30.3298 41.4685 30.3298 41.1322C30.3299 40.7961 30.057 40.5232 29.7208 40.5232Z" fill="#2C2C2C"/>
<path d="M5.11328 5.07516V48.9248C5.11328 51.0516 6.8436 52.7819 8.97038 52.7819H39.3077C41.4345 52.7819 43.1648 51.0516 43.1648 48.9248V20.1693C46.37 19.8635 48.8859 17.1544 48.8859 13.8664C48.8859 10.5821 46.37 7.87694 43.1648 7.57129V5.07516C43.1648 2.94838 41.4345 1.21806 39.3077 1.21806H8.97038C6.8436 1.21806 5.11328 2.94838 5.11328 5.07516ZM42.5603 8.75866C45.3766 8.75866 47.668 11.0496 47.668 13.8664C47.668 16.6871 45.3766 18.9821 42.5603 18.9821C39.7392 18.9821 37.4442 16.6872 37.4442 13.8664C37.4442 11.0496 39.7391 8.75866 42.5603 8.75866ZM6.33134 5.07516C6.33134 3.62001 7.51533 2.43602 8.97048 2.43602H39.3078C40.763 2.43602 41.947 3.62001 41.947 5.07516V7.57161C38.7411 7.88074 36.2262 10.5847 36.2262 13.8663C36.2262 17.1517 38.741 19.8592 41.947 20.1689V48.9248C41.947 50.38 40.763 51.564 39.3078 51.564H8.97038C7.51523 51.564 6.33123 50.38 6.33123 48.9248V5.07516H6.33134Z" fill="#2C2C2C"/>
<path d="M41.2419 15.8108C41.4799 16.0488 41.8652 16.0488 42.1031 15.8108L45.1236 12.7903C45.3615 12.5524 45.3615 12.167 45.1236 11.9292C44.8856 11.6912 44.5003 11.6912 44.2624 11.9292L41.6725 14.519L40.8482 13.6951C40.6103 13.4572 40.2249 13.4572 39.987 13.6951C39.7491 13.9331 39.7491 14.3184 39.987 14.5563L41.2419 15.8108Z" fill="white"/>
</svg>
