<svg width="79" height="13" viewBox="0 0 79 13" fill="none" xmlns="http://www.w3.org/2000/svg">
<g opacity="0.5">
<path d="M2.55198 4.89635L3.76014 4.72252C4.16286 5.02674 4.56557 5.33095 4.96828 5.63516L3.76014 5.85246C3.35742 5.50479 2.9547 5.20057 2.55198 4.89635ZM5.50523 6.72165L6.7134 6.50436C7.25035 6.76511 7.78731 7.06933 8.45851 7.33009L7.38459 7.59084C6.57916 7.28663 6.04219 7.02587 5.50523 6.72165ZM9.1297 8.37312L10.2036 8.0689C10.8748 8.32966 11.546 8.54695 12.3514 8.80771L11.4118 9.11193C10.6063 8.89463 9.93514 8.63387 9.1297 8.37312ZM13.6938 9.80728L14.4993 9.4596C15.3047 9.6769 16.1101 9.8942 16.9155 10.068L16.1101 10.4157C15.4389 10.2419 14.4993 10.0246 13.6938 9.80728ZM18.9291 10.9807L19.6003 10.5896C20.54 10.7634 21.3454 10.9372 22.2851 11.0676L21.7482 11.4587C20.8085 11.3284 19.8688 11.1545 18.9291 10.9807ZM24.5672 11.8933L25.1041 11.5022C26.0438 11.6326 26.9835 11.7195 28.0574 11.8064L27.6547 12.241C26.5808 12.1541 25.6411 12.0237 24.5672 11.8933ZM30.7422 12.5018L31.0106 12.0672C31.4134 12.1106 31.6818 12.1106 32.0846 12.1106C32.7558 12.1541 33.4269 12.1541 34.0981 12.1976L33.9639 12.6321C33.2927 12.5887 32.6215 12.5887 31.9503 12.5452C31.4134 12.5452 31.0106 12.5018 30.7422 12.5018ZM37.0514 12.7191L37.0514 12.2845C37.3199 12.2845 37.5884 12.2845 37.8568 12.2845C38.6623 12.2845 39.3335 12.2845 40.1389 12.241L40.2731 12.6756C39.4677 12.6756 38.6623 12.7191 37.8568 12.7191C37.4541 12.7191 37.3199 12.7191 37.0514 12.7191ZM43.0921 12.1541C44.0318 12.1106 45.1057 12.0237 46.0454 11.9803L46.3139 12.4149C45.24 12.5018 44.1661 12.5452 43.2264 12.5887L43.0921 12.1541ZM49.1329 11.676C50.0726 11.5891 51.0123 11.4587 51.9519 11.3284L52.4889 11.7195C51.5492 11.8499 50.4753 11.9803 49.5356 12.0672L49.1329 11.676ZM54.771 10.9372C55.7106 10.8069 56.6503 10.633 57.4557 10.4592L58.1269 10.8503C57.1873 11.0241 56.2476 11.198 55.3079 11.3284L54.771 10.9372ZM60.0063 9.93766C60.8117 9.76382 61.6171 9.54652 62.4226 9.32922L63.3622 9.6769C62.5568 9.8942 61.7514 10.1115 60.8117 10.3288L60.0063 9.93766ZM64.5704 8.63387C65.2416 8.41658 65.9128 8.15582 66.584 7.89506L67.6579 8.15582C66.9867 8.41657 66.3155 8.67733 65.5101 8.93809L64.5704 8.63387ZM68.4633 7.11279C69.0003 6.85203 69.5372 6.54781 70.0742 6.28706L71.2823 6.50435C70.7454 6.80857 70.2084 7.11279 69.5372 7.37354L68.4633 7.11279ZM71.6851 5.37441C72.0878 5.07019 72.6247 4.76597 73.0274 4.46176L74.2356 4.6356C73.8329 4.93982 73.2959 5.24403 72.8932 5.54825L71.6851 5.37441ZM74.1014 3.54911C74.5041 3.2449 74.7726 2.94067 75.1753 2.593L76.5177 2.72338C76.1149 3.02759 75.8465 3.37527 75.4437 3.67949L74.1014 3.54911ZM76.2492 1.68035C76.5177 1.37613 76.9204 1.02846 77.1889 0.724243L78.5313 0.854616C78.2628 1.15883 77.8601 1.50651 77.5916 1.81073L76.2492 1.68035Z" fill="white"/>
<path d="M0.000974977 6.85198L1.20912 6.98236L3.49118 4.93976L9.66618 5.80895L10.2031 5.41781L2.68575 4.37479L0.000974977 6.85198Z" fill="white"/>
</g>
</svg>
