<svg width="50" height="50" viewBox="0 0 50 50" fill="none" xmlns="http://www.w3.org/2000/svg">
<rect width="50" height="50" rx="5" fill="#495CEE"/>
<g clip-path="url(#clip0_926_11)">
<path d="M24.5 10C15.9396 10 9 16.9396 9 25.5C9 34.0604 15.9396 41 24.5 41C33.0604 41 40 34.0604 40 25.5C39.9906 16.9435 33.0565 10.0094 24.5 10ZM24.5 39.8552C16.5718 39.8552 10.1448 33.4282 10.1448 25.5C10.1448 17.5718 16.5718 11.1448 24.5 11.1448C32.4282 11.1448 38.8552 17.5718 38.8552 25.5C38.8458 33.4243 32.4243 39.8458 24.5 39.8552Z" fill="white"/>
<path d="M27.3317 27.4919C27.0365 27.0725 26.6817 26.6985 26.2786 26.3815C25.7062 25.8949 25.3112 25.5687 24.985 22.6953C24.8476 21.4934 24.5843 20.2685 23.6742 20.2685C22.7642 20.2685 22.2089 21.5735 21.814 22.6839C21.7671 22.7675 21.7094 22.8445 21.6423 22.9128C21.5061 22.7419 21.4015 22.5481 21.3332 22.3405L21.213 22.0543L20.9096 21.997C20.6999 21.9608 20.4872 21.9436 20.2743 21.9455C19.2426 21.9261 18.2623 22.395 17.6299 23.2105C17.4484 23.3227 17.2361 23.3748 17.0232 23.3593C16.9304 23.3217 16.8314 23.3024 16.7313 23.3021C16.1589 23.3021 15.9757 23.8287 15.8441 24.1721C15.6151 24.7445 15.4778 24.962 15.0943 24.962C14.1989 24.9268 13.3432 25.3332 12.8048 26.0495C12.3617 26.7411 12.2908 27.6076 12.6159 28.3619L12.7418 28.6881C13.2014 29.7018 13.4506 30.798 13.4745 31.9106C13.4487 32.6657 14.04 33.2987 14.7951 33.3244C14.8261 33.3255 14.8572 33.3255 14.8882 33.3244C16.033 33.3244 17.5269 32.2598 18.4198 31.2066C18.6358 30.9052 18.9768 30.7179 19.3471 30.6972C19.9181 30.7712 20.4252 31.0994 20.7265 31.5901C21.0527 32.2884 22.9588 33.6621 24.4813 33.6621C24.8359 33.6662 25.1867 33.5878 25.5058 33.4332C26.6339 32.7636 27.4416 31.6647 27.7438 30.3881C28.037 29.4089 27.8864 28.3504 27.3317 27.4919ZM26.6277 30.079L26.622 30.1019C26.393 31.0496 25.8037 31.8709 24.9793 32.3914C24.8183 32.4672 24.6419 32.5045 24.4641 32.5002C23.4187 32.3669 22.4549 31.8657 21.7453 31.0864C21.2565 30.2026 20.3544 29.6256 19.3471 29.5524C18.6388 29.5696 17.9771 29.9089 17.5498 30.474C16.6512 31.5329 15.4721 32.1911 14.894 32.1911C14.7509 32.1911 14.6478 32.1911 14.6249 31.8477C14.5917 30.6196 14.3174 29.4099 13.8179 28.2875L13.692 27.9612C13.4938 27.5515 13.5154 27.0695 13.7492 26.6791C14.0776 26.2839 14.576 26.0709 15.0886 26.1067C15.9683 26.0635 16.7109 25.4381 16.903 24.5785V24.5041C17.4017 24.5196 17.8931 24.3817 18.3111 24.1091L18.3969 24.0519L18.4599 23.966C18.8822 23.4059 19.5569 23.0944 20.2571 23.1361H20.3945C20.5948 23.6637 21.0752 24.0335 21.6366 24.0919C22.3692 24.0919 22.7813 23.3078 22.8557 23.1532V23.096C23.0336 22.5648 23.2758 22.0574 23.5769 21.5849C23.7011 21.9912 23.7817 22.4094 23.8173 22.8327C24.1779 25.998 24.6988 26.5818 25.5345 27.2629C25.8551 27.5161 26.1366 27.815 26.3701 28.1501C26.7261 28.7273 26.8197 29.4287 26.6277 30.079Z" fill="white"/>
<path d="M22.4104 34.0857L22.313 33.9025L22.1013 33.8224C21.805 33.7188 21.4936 33.6646 21.1797 33.6621C20.7526 33.6512 20.3394 33.8144 20.035 34.1143C19.7044 34.4936 19.5468 34.9934 19.6 35.4937C19.64 36.4954 20.2582 36.8503 20.7447 36.8503C21.3836 36.7984 21.9566 36.4371 22.2787 35.8829C22.6415 35.3507 22.6917 34.6651 22.4104 34.0857ZM21.3114 35.2705C21.1857 35.4844 20.9796 35.639 20.739 35.6998C20.7079 35.6175 20.6924 35.5301 20.6932 35.4422C20.6637 35.253 20.7045 35.0596 20.8077 34.8985C20.9064 34.8252 21.0286 34.7906 21.1511 34.8012C21.2387 34.7936 21.3268 34.7936 21.4144 34.8012C21.4287 34.9651 21.3907 35.1295 21.3057 35.2705H21.3114Z" fill="white"/>
<path d="M27.7895 17.6298C27.509 16.8628 26.4444 16.5079 25.7403 16.3419C25.6947 16.0002 25.5561 15.6774 25.3397 15.409C24.8245 14.7679 23.9087 14.4302 22.6094 14.4188C21.9158 13.8112 21.0446 13.4439 20.1253 13.3713C19.3413 13.376 18.6096 13.7654 18.1678 14.413C17.7131 14.8849 17.5786 15.58 17.8244 16.1874C18.2536 17.086 19.6102 17.3322 20.2799 17.4008C20.6867 18.153 21.443 18.6515 22.2946 18.7288C22.6285 18.7251 22.9564 18.6407 23.2505 18.4826C23.7885 18.9577 24.8532 19.7648 25.9292 19.7648C26.4943 19.7692 27.0326 19.5242 27.4002 19.0951C27.8082 18.7265 27.9607 18.1522 27.7895 17.6298ZM26.5531 18.3453V18.3281C26.4037 18.5125 26.1779 18.618 25.9407 18.6143C25.1336 18.6143 24.0805 17.7099 23.7485 17.3608C23.5471 17.1539 23.2232 17.1293 22.9929 17.3035C22.803 17.4695 22.5636 17.5681 22.3118 17.584C21.6478 17.584 21.167 16.6167 21.167 16.611C21.076 16.4194 20.8867 16.2939 20.6748 16.2847C19.9422 16.2504 19.0206 16.0042 18.8775 15.7123C18.826 15.5979 18.9119 15.3746 19.1065 15.14C19.3329 14.7863 19.7226 14.571 20.1425 14.5676C20.8477 14.6569 21.5056 14.9699 22.0199 15.4605C22.1284 15.562 22.272 15.6175 22.4206 15.615H22.5293C23.4737 15.615 24.1549 15.8096 24.4468 16.1874C24.5785 16.3475 24.6403 16.5537 24.6185 16.7598C24.5728 17.0614 24.7717 17.346 25.0707 17.4066C25.809 17.5039 26.6218 17.8187 26.7019 18.0362C26.7306 18.0591 26.7191 18.1564 26.5531 18.3453Z" fill="white"/>
<path d="M35.8405 30.0504C35.5314 29.0945 35.0277 28.9056 34.6614 28.9056C34.1095 28.9836 33.634 29.3344 33.3965 29.8386C32.9974 30.3262 32.5549 30.7764 32.0743 31.1837H31.0497C30.7336 31.1821 30.476 31.4371 30.4745 31.7532C30.4744 31.7733 30.4753 31.7934 30.4773 31.8133L30.5918 32.9237L29.5959 33.9254C29.4859 34.0362 29.4259 34.1871 29.4299 34.3432C29.4633 35.1834 30.1715 35.8375 31.0116 35.8041C31.0205 35.8037 31.0294 35.8033 31.0383 35.8028C31.3314 35.7979 31.6224 35.7516 31.9025 35.6654C31.9686 35.6462 32.0307 35.6151 32.0857 35.5739C32.8298 35.0015 36.5045 32.0995 35.8405 30.0504ZM31.479 34.6008C31.3352 34.6396 31.1871 34.6607 31.0383 34.6638C30.8804 34.6819 30.7245 34.6169 30.6261 34.4921L31.5992 33.5133C31.7216 33.3917 31.7826 33.2213 31.7652 33.0497L31.685 32.2998H32.2918C32.4309 32.2996 32.5652 32.2488 32.6695 32.1568C33.2971 31.6401 33.8706 31.0609 34.3809 30.4282L34.3752 30.411C34.4437 30.2976 34.5243 30.1921 34.6156 30.0962C34.6711 30.1959 34.7152 30.3015 34.7473 30.411C35.0449 31.3325 33.0301 33.4274 31.479 34.6008Z" fill="white"/>
</g>
<defs>
<clipPath id="clip0_926_11">
<rect width="31" height="31" fill="white" transform="translate(9 10)"/>
</clipPath>
</defs>
</svg>
