<svg width="230" height="28" viewBox="0 0 230 28" fill="none" xmlns="http://www.w3.org/2000/svg">
<g clip-path="url(#clip0_187_2285)">
<path d="M30.44 1.23998C29.8689 1.24526 29.3231 1.47654 28.9221 1.88321C28.521 2.28987 28.2974 2.83883 28.3 3.40998V22.48H18.87V1.23998H16.31C15.7389 1.24526 15.1931 1.47654 14.7921 1.88321C14.391 2.28987 14.1674 2.83883 14.17 3.40998V22.48H4.70002V1.23998H2.14002C1.85768 1.24129 1.57836 1.2982 1.31801 1.40746C1.05766 1.51672 0.821384 1.67619 0.622666 1.87677C0.423948 2.07734 0.266683 2.31509 0.159849 2.57645C0.053016 2.8378 -0.00129291 3.11764 2.33657e-05 3.39998V27.23H31C31.5305 27.23 32.0392 27.0193 32.4142 26.6442C32.7893 26.2691 33 25.7604 33 25.23V1.22998L30.44 1.23998ZM56.94 6.06998L48.53 25.85C48.3559 26.2607 48.065 26.6114 47.6935 26.8585C47.322 27.1055 46.8862 27.2382 46.44 27.24H43L54.62 1.23998H59.34L71 27.24H67.48C67.0347 27.2403 66.5991 27.1097 66.2275 26.8643C65.8559 26.6189 65.5646 26.2697 65.39 25.86L56.94 6.06998ZM90 16.36L85.83 20.59V27.24H81V1.23998H85.87V14.57L98.87 1.23998H104.34L93.34 12.87L105 27.24H100.65C100.23 27.2435 99.8136 27.156 99.4304 26.9833C99.0472 26.8107 98.7059 26.5571 98.43 26.24L90 16.36ZM116 1.23998H133.32C133.89 1.23998 134.437 1.4665 134.84 1.8697C135.244 2.2729 135.47 2.81977 135.47 3.38998V5.28998H118.15C117.868 5.28998 117.588 5.23437 117.327 5.12632C117.066 5.01827 116.829 4.85991 116.63 4.66026C116.43 4.46061 116.272 4.2236 116.164 3.96275C116.056 3.7019 116 3.42232 116 3.13998V1.23998ZM116 23.19H133.85C134.42 23.19 134.967 23.4165 135.37 23.8197C135.774 24.2229 136 24.7698 136 25.34V27.24H118.15C117.582 27.2374 117.038 27.0114 116.636 26.6109C116.234 26.2104 116.005 25.6676 116 25.1V23.2V23.19Z" fill="white"/>
<path d="M116 12H131.68C131.962 12 132.242 12.0556 132.503 12.1637C132.764 12.2717 133.001 12.4301 133.2 12.6297C133.4 12.8294 133.558 13.0664 133.666 13.3272C133.774 13.5881 133.83 13.8677 133.83 14.15V16H118.15C117.585 16.0001 117.043 15.7777 116.64 15.3809C116.238 14.9842 116.008 14.445 116 13.88V12Z" fill="#34BBDA"/>
<path d="M146 14.2299C146 6.67991 151.64 1.22991 159.23 1.22991C161.071 1.16169 162.904 1.50616 164.594 2.23807C166.285 2.96999 167.79 4.07082 169 5.45991L167.4 6.99991C167.055 7.33392 166.602 7.53285 166.123 7.56039C165.644 7.58792 165.171 7.44223 164.79 7.14991C163.477 6.15301 161.912 5.54349 160.27 5.39032C158.629 5.23715 156.978 5.54644 155.503 6.28321C154.029 7.01997 152.79 8.15478 151.927 9.55919C151.064 10.9636 150.611 12.5816 150.62 14.2299C150.528 16.493 151.338 18.7002 152.871 20.3669C154.405 22.0336 156.537 23.0238 158.8 23.1199H159.44C161.375 23.1498 163.262 22.5105 164.78 21.3099C165.162 21.0121 165.639 20.8632 166.123 20.8908C166.607 20.9183 167.064 21.1206 167.41 21.4599L169 22.9999C167.781 24.3875 166.268 25.4862 164.571 26.2161C162.874 26.9461 161.036 27.289 159.19 27.2199C151.64 27.2299 146 21.7799 146 14.2299Z" fill="white"/>
<path d="M206.09 12.4C206.09 13.66 205.3 14.4 203.77 14.4H201.77V10.4H203.77C205.3 10.41 206.09 11.14 206.09 12.4ZM193.85 10.56H191.77V14.56H193.85C195.41 14.56 196.21 13.83 196.21 12.56C196.21 11.29 195.41 10.56 193.85 10.56ZM230 10V26.5C230 26.8978 229.842 27.2794 229.561 27.5607C229.279 27.842 228.898 28 228.5 28H190C187.348 28 184.804 26.9464 182.929 25.0711C181.054 23.1957 180 20.6522 180 18V1.5C180 1.10218 180.158 0.720644 180.439 0.43934C180.721 0.158035 181.102 0 181.5 0H220C222.652 0 225.196 1.05357 227.071 2.92893C228.946 4.8043 230 7.34784 230 10ZM198 12.55C198 10.33 196.44 8.99 193.93 8.99H190V19H191.77V16.1H193.93C196.44 16.1 198 14.75 198 12.55ZM208 18.84L205.85 15.56C206.471 15.307 206.997 14.8666 207.356 14.3001C207.714 13.7336 207.887 13.0694 207.85 12.4C207.85 10.19 206.32 8.84 203.85 8.84H200V18.84H201.74V15.93H204.21L206.13 18.86L208 18.84ZM220 13.84C220 12.7918 219.689 11.7671 219.107 10.8955C218.524 10.0239 217.697 9.34458 216.728 8.94344C215.76 8.54229 214.694 8.43734 213.666 8.64184C212.638 8.84634 211.694 9.35112 210.952 10.0923C210.211 10.8336 209.706 11.7779 209.502 12.806C209.297 13.8341 209.402 14.8998 209.803 15.8682C210.205 16.8367 210.884 17.6644 211.755 18.2468C212.627 18.8292 213.652 19.14 214.7 19.14C216.106 19.14 217.454 18.5816 218.448 17.5877C219.442 16.5937 220 15.2456 220 13.84ZM214.7 10.22C214.248 10.2174 213.8 10.3037 213.382 10.4742C212.964 10.6446 212.583 10.8958 212.262 11.2134C211.94 11.531 211.685 11.9087 211.509 12.3251C211.334 12.7414 211.243 13.1883 211.24 13.64C211.235 13.7066 211.235 13.7734 211.24 13.84C211.24 14.7576 211.605 15.6377 212.253 16.2866C212.902 16.9355 213.782 17.3 214.7 17.3C215.618 17.3 216.498 16.9355 217.147 16.2866C217.795 15.6377 218.16 14.7576 218.16 13.84C218.184 13.3881 218.119 12.9359 217.968 12.5092C217.818 12.0825 217.584 11.6898 217.281 11.3535C216.978 11.0172 216.612 10.744 216.204 10.5495C215.795 10.355 215.352 10.243 214.9 10.22H214.7Z" fill="#34BBDA"/>
</g>
<defs>
<clipPath id="clip0_187_2285">
<rect width="230" height="28" fill="white"/>
</clipPath>
</defs>
</svg>
